<?xml version="1.0" encoding="UTF-8" standalone="no"?>
<svg
   xmlns:dc="http://purl.org/dc/elements/1.1/"
   xmlns:cc="http://creativecommons.org/ns#"
   xmlns:rdf="http://www.w3.org/1999/02/22-rdf-syntax-ns#"
   xmlns:svg="http://www.w3.org/2000/svg"
   xmlns="http://www.w3.org/2000/svg"
   viewBox="0 0 1066.6667 696.40002"
   height="400.40002"
   width="1066.6667"
   xml:space="preserve"
   id="svg2"
   version="1.1"><metadata
     id="metadata8"><rdf:RDF><cc:Work
         rdf:about=""><dc:format>image/svg+xml</dc:format><dc:type
           rdf:resource="http://purl.org/dc/dcmitype/StillImage" /></cc:Work></rdf:RDF></metadata><defs
     id="defs6" /><g
     transform="matrix(1.3333333,0,0,-1.3333333,0,696.4)"
     id="g10"><g
       transform="scale(0.1)"
       id="g12"><path
         id="path14"
         style="fill:#69cbb2;fill-opacity:1;fill-rule:nonzero;stroke:none"
         d="M 8000,0 H 0 V 5223.03 H 8000 V 0" /><path
         id="path16"
         style="fill:#51c3a9;fill-opacity:1;fill-rule:nonzero;stroke:none"
         d="m 819.824,482.371 v 0 l 107.832,34.969 1187.654,384.98 115.02,61.891 33.48,18.629 -37.73,-5.539 -129.73,-16.539 -1187.635,-385 -107.832,-34.973 -0.004,0.012 -41.313,-13.403 18.95,-58.429 41.308,13.402" /><path
         id="path18"
         style="fill:#51c3a9;fill-opacity:1;fill-rule:nonzero;stroke:none"
         d="m 271.715,5198.41 c -49.934,-17.25 -76.426,-71.71 -59.188,-121.64 L 784.414,3420.91 c 17.25,-49.93 71.699,-76.42 121.625,-59.18 l 2458.081,848.93 c 49.9,17.27 76.39,71.7 59.15,121.62 l -307.64,890.75 H 343.012 l -71.297,-24.62" /><path
         id="path20"
         style="fill:#51c3a9;fill-opacity:1;fill-rule:nonzero;stroke:none"
         d="m 8000,3457.98 -551.06,1145.66 c -17.54,36.46 -61.3,51.79 -97.74,34.26 L 6201.58,4084.94 c -36.45,-17.55 -51.81,-61.3 -34.27,-97.76 L 6975.77,2306.4 c 17.54,-36.46 61.31,-51.78 97.76,-34.24 L 8000,2717.79 v 740.19" /><path
         id="path22"
         style="fill:#51c3a9;fill-opacity:1;fill-rule:nonzero;stroke:none"
         d="M 7688.29,1445.11 6934.42,1673.22 6556.62,424.621 7310.49,196.52 c 33.02,-9.981 67.91,8.671 77.91,41.679 l 341.61,1128.981 c 9.99,33.05 -8.69,67.95 -41.72,77.93" /><path
         id="path24"
         style="fill:#51c3a9;fill-opacity:1;fill-rule:nonzero;stroke:none"
         d="m 2294.6,263.719 116.78,107.531 c 3.56,3.238 3.81,8.73 0.58,12.301 l -279.21,306.59 c -0.03,0.027 -0.06,0.039 -0.09,0.07 l -55.61,61.059 c -3.24,3.55 -8.73,3.808 -12.29,0.57 L 1947.97,644.32 c -3.56,-3.23 -3.81,-8.73 -0.57,-12.3 l 279.2,-306.59 c 0.04,-0.032 0.08,-0.039 0.11,-0.078 l 55.6,-61.043 c 3.23,-3.547 8.73,-3.821 12.29,-0.59" /><path
         id="path26"
         style="fill:#51c3a9;fill-opacity:1;fill-rule:nonzero;stroke:none"
         d="m 6731.34,2150.52 c -0.01,1.21 -0.02,2.4 -0.07,3.57 -0.01,0.38 0,0.79 -0.02,1.16 l -0.06,0.01 c -2.55,54.57 -41,60.35 -41,60.35 0,0 -38.78,2.85 -53.32,-49.81 l -0.07,0.01 c -0.12,-0.42 -0.21,-0.89 -0.33,-1.32 -0.27,-1.02 -0.51,-2.08 -0.77,-3.14 -0.76,-3.21 -1.47,-6.53 -2.05,-10.14 -0.38,-2.43 -0.79,-5.01 -1.2,-7.68 -2.4,0.27 -4.98,0.56 -7.48,0.84 -8.17,0.91 -15.88,-8.65 -19.36,-13.42 -3.49,-4.78 -27.21,-124.55 -30.88,-163.97 -3.67,-39.42 -19.46,-203.61 -17.25,-205.33 2.21,-1.72 12.39,-10.56 17.95,-3.27 5.57,7.27 20.09,49.17 10.87,56.84 -9.24,7.67 -15.54,23.87 -11.08,44.02 4.47,20.15 38.16,246.5 44.63,256.1 2.84,4.2 6.18,6.24 9.44,7.14 -11.45,-77.77 -28.81,-210.94 -33.67,-254.46 -2.92,-26.1 -7.67,-84.37 -11.51,-133.68 h -0.01 c -0.14,-1.76 -0.26,-3.39 -0.39,-5.13 -3.26,-41.98 -5.77,-76.21 -5.77,-76.21 l 48.72,-5.45 48.73,-5.45 c 0,0 0.05,0.34 0.08,0.51 0.35,2.32 1.91,12.78 4.17,27.96 1.11,7.47 2.38,15.96 3.77,25.38 h -0.01 c 7.73,52.44 18.76,128.67 22.23,159.77 5.38,48.06 20.07,206.16 25.04,278.2 v 0 c 0.15,2.22 0.3,4.35 0.43,6.4 0.24,3.59 0.28,6.94 0.24,10.2" /><path
         id="path28"
         style="fill:#51c3a9;fill-opacity:1;fill-rule:nonzero;stroke:none"
         d="m 6532.67,1248.13 c 0,0 -5.84,-121.58 -5.84,-162.35 0,-40.74 5.81,-163.632 5.81,-163.632 l 5.1,-0.578 -2.11,-18.851 c -0.42,-3.828 2.34,-7.27 6.17,-7.699 3.82,-0.43 7.25,2.308 7.68,6.128 l 2.11,18.872 6.55,-0.739 c 0,0 32.83,118.589 41.81,158.339 9,39.73 30.17,159.62 30.17,159.62 l 45.27,404.86 -97.45,10.9 -45.27,-404.87" /><path
         id="path30"
         style="fill:#505256;fill-opacity:1;fill-rule:nonzero;stroke:none"
         d="m 2112.68,1011.63 129.73,16.55 4.26,-13.1 -115.03,-61.881 -18.96,58.431" /><path
         id="path32"
         style="fill:#404147;fill-opacity:1;fill-rule:nonzero;stroke:none"
         d="m 2242.41,1028.18 4.26,-13.1 33.48,18.64 z" /><path
         id="path34"
         style="fill:#505256;fill-opacity:1;fill-rule:nonzero;stroke:none"
         d="m 943.984,568.219 -111.351,-36.117 -18.945,58.429 111.363,36.098 18.933,-58.41" /><path
         id="path36"
         style="fill:#404147;fill-opacity:1;fill-rule:nonzero;stroke:none"
         d="m 836.156,533.238 -41.312,-13.386 -18.946,58.429 41.309,13.399 18.949,-58.442" /><path
         id="path38"
         style="fill:#f68412;fill-opacity:1;fill-rule:nonzero;stroke:none"
         d="m 943.984,568.219 1187.656,384.98 -18.96,58.431 -1187.629,-385.001 18.933,-58.41" /><path
         id="path40"
         style="fill:#51c3a9;fill-opacity:1;fill-rule:nonzero;stroke:none"
         d="m 1464.71,995.762 c -21.29,-33.024 -65.3,-42.563 -98.31,-21.282 L 113.977,1781.24 c -33.02,21.28 -42.5434,65.28 -21.2934,98.32 l 610.2224,947.29 c 21.27,33.03 65.278,42.54 98.301,21.27 L 2053.64,2041.36 c 33.02,-21.27 42.55,-65.29 21.28,-98.31 L 1464.71,995.762" /><path
         id="path42"
         style="fill:#51c3a9;fill-opacity:1;fill-rule:nonzero;stroke:none"
         d="m 4787.98,4574.71 c 20.88,30.66 12.96,72.46 -17.71,93.35 l -306.93,209.07 c -30.67,20.88 -72.47,12.95 -93.35,-17.71 v 0 0 l -526.34,-772.74 c -20.89,-30.67 -12.97,-72.46 17.71,-93.34 l 306.94,-209.06 v 0 c 30.66,-20.9 72.45,-12.97 93.34,17.69 l 526.34,772.74 v 0 0" /><path
         id="path44"
         style="fill:#f7f7f7;fill-opacity:1;fill-rule:nonzero;stroke:none"
         d="m 8000,3368.66 -611.46,1271.23 c -17.54,36.45 -61.29,51.78 -97.74,34.25 L 6141.18,4121.18 c -36.45,-17.55 -51.8,-61.31 -34.27,-97.76 l 808.46,-1680.78 c 17.55,-36.46 61.31,-51.78 97.76,-34.24 L 8000,2783.08 v 585.58" /><path
         id="path46"
         style="fill:#404147;fill-opacity:1;fill-rule:nonzero;stroke:none"
         d="M 8000,3171.54 7353.6,4515.39 6226,3973.01 6946.95,2474.12 8000,2980.63 v 190.91" /><path
         id="path48"
         style="fill:#e8e7e6;fill-opacity:1;fill-rule:nonzero;stroke:none"
         d="m 7505.82,2644.14 c -11.6,24.06 -1.46,52.93 22.59,64.5 24.06,11.56 52.92,1.46 64.5,-22.61 11.54,-24.04 1.45,-52.93 -22.61,-64.49 -24.06,-11.58 -52.92,-1.44 -64.48,22.6" /><path
         id="path50"
         style="fill:#404147;fill-opacity:1;fill-rule:nonzero;stroke:none"
         d="m 6743,4311.17 c -3.17,6.55 -0.42,14.42 6.13,17.55 6.54,3.17 14.41,0.4 17.55,-6.15 3.16,-6.54 0.41,-14.4 -6.15,-17.55 -6.55,-3.16 -14.4,-0.39 -17.53,6.15" /><path
         id="path52"
         style="fill:#252323;fill-opacity:1;fill-rule:nonzero;stroke:none"
         d="M 8000,2984 6948.38,2478.19 6230.06,3971.58 7352.18,4511.32 8000,3164.5 v 14.07 L 7355.04,4519.46 6221.92,3974.43 6945.54,2470.04 8000,2977.21 v 6.79" /><path
         id="path54"
         style="fill:#51c3a9;fill-opacity:1;fill-rule:nonzero;stroke:none"
         d="m 5636.08,4095.54 c -258.24,13.32 -456.84,233.44 -443.54,491.72 13.32,258.28 233.47,456.85 491.73,443.55 258.28,-13.3 456.87,-233.46 443.55,-491.74 -13.28,-258.26 -233.44,-456.83 -491.74,-443.53" /><path
         id="path56"
         style="fill:#abafae;fill-opacity:1;fill-rule:nonzero;stroke:none"
         d="m 4222.05,4705.54 -5.5,3.75 28.75,42.21 5.49,-3.75 -28.74,-42.21" /><path
         id="path58"
         style="fill:#abafae;fill-opacity:1;fill-rule:nonzero;stroke:none"
         d="m 4171.14,4633.91 -4.05,2.76 19.51,28.63 4.05,-2.75 -19.51,-28.64" /><path
         id="path60"
         style="fill:#abafae;fill-opacity:1;fill-rule:nonzero;stroke:none"
         d="m 4121.32,4560.75 -4.05,2.77 19.49,28.62 4.06,-2.76 -19.5,-28.63" /><path
         id="path62"
         style="fill:#f7f7f7;fill-opacity:1;fill-rule:nonzero;stroke:none"
         d="m 4712.11,4530.69 c 20.89,30.67 12.96,72.44 -17.71,93.34 l -306.93,209.07 c -30.67,20.88 -72.47,12.95 -93.35,-17.7 v 0 0 l -526.34,-772.76 c -20.89,-30.64 -12.96,-72.44 17.71,-93.32 l 306.94,-209.08 v 0 c 30.66,-20.88 72.45,-12.95 93.34,17.7 l 526.34,772.75 v 0 0" /><path
         id="path64"
         style="fill:#404147;fill-opacity:1;fill-rule:nonzero;stroke:none"
         d="m 4204.18,3832.02 -372.19,253.51 440.53,646.77 372.19,-253.52 -440.53,-646.76" /><path
         id="path66"
         style="fill:#252323;fill-opacity:1;fill-rule:nonzero;stroke:none"
         d="m 3835.08,4086.1 368.51,-251.01 438.05,643.12 -368.51,251 z m 369.68,-257.17 -375.83,256.02 443.01,650.41 375.83,-256 -443.01,-650.43" /><path
         id="path68"
         style="fill:#d3d2d0;fill-opacity:1;fill-rule:nonzero;stroke:none"
         d="m 3937.45,3930.91 c 14.8,21.7 44.36,27.32 66.08,12.54 21.68,-14.77 27.29,-44.36 12.5,-66.08 -14.77,-21.68 -44.35,-27.26 -66.03,-12.5 -21.72,14.79 -27.32,44.34 -12.55,66.04" /><path
         id="path70"
         style="fill:#e8e7e6;fill-opacity:1;fill-rule:nonzero;stroke:none"
         d="m 3942.07,3927.76 c 13.05,19.14 39.16,24.12 58.31,11.08 19.15,-13.05 24.08,-39.16 11.04,-58.32 -13.04,-19.13 -39.13,-24.07 -58.27,-11.04 -19.16,13.05 -24.11,39.14 -11.08,58.28" /><path
         id="path72"
         style="fill:#abafae;fill-opacity:1;fill-rule:nonzero;stroke:none"
         d="m 4503.91,4693.66 c 2.72,4.03 8.19,5.04 12.18,2.33 4.02,-2.74 5.05,-8.2 2.32,-12.19 -2.73,-4.02 -8.18,-5.04 -12.19,-2.3 -3.99,2.71 -5.05,8.16 -2.31,12.16" /><path
         id="path74"
         style="fill:#abafae;fill-opacity:1;fill-rule:nonzero;stroke:none"
         d="m 4433.15,4694.02 c 1.83,2.67 5.49,3.36 8.14,1.54 2.68,-1.82 3.37,-5.47 1.55,-8.13 -1.81,-2.67 -5.46,-3.36 -8.14,-1.54 -2.67,1.82 -3.36,5.45 -1.55,8.13" /><path
         id="path76"
         style="fill:#abafae;fill-opacity:1;fill-rule:nonzero;stroke:none"
         d="m 4522.91,4632.9 c -1.44,-2.11 -4.34,-2.62 -6.52,-1.13 l -60.15,40.98 c -2.17,1.46 -2.77,4.37 -1.34,6.48 v 0 c 1.42,2.07 4.35,2.58 6.51,1.11 l 60.16,-40.98 c 2.17,-1.48 2.76,-4.39 1.34,-6.46 v 0" /><path
         id="path78"
         style="fill:#9ca0a0;fill-opacity:1;fill-rule:nonzero;stroke:none"
         d="m 2817.61,3950.75 -1122.17,-387.55 -24.23,70.12 1122.17,387.57 24.23,-70.14" /><path
         id="path80"
         style="fill:#e8e7e6;fill-opacity:1;fill-rule:nonzero;stroke:none"
         d="m 380.133,5164.68 c -49.938,-17.24 -76.434,-71.7 -59.192,-121.63 L 892.828,3387.19 c 17.25,-49.93 71.699,-76.43 121.622,-59.18 l 1028.11,355.07 -0.66,1.93 c -4.69,13.58 2.51,28.42 16.11,33.11 l 346.64,119.71 c 13.58,4.7 28.42,-2.51 33.1,-16.11 l 0.67,-1.92 1034.11,357.14 c 49.9,17.27 76.39,71.7 59.14,121.63 l -319.28,924.46 H 549.066 l -168.933,-58.35" /><path
         id="path82"
         style="fill:#ccd0d0;fill-opacity:1;fill-rule:nonzero;stroke:none"
         d="m 524.27,5077.02 c -20.543,-7.1 -31.442,-29.51 -24.352,-50.05 l 308.418,-893.02 c 7.102,-20.53 29.496,-31.43 50.039,-24.34 l 2253.185,778.18 c 20.52,7.09 31.41,29.49 24.32,50.03 l -98.5,285.21 H 947.051 L 524.27,5077.02" /><path
         id="path84"
         style="fill:#e4e4e3;fill-opacity:1;fill-rule:nonzero;stroke:none"
         d="m 2618.26,4018.87 c 9.96,-28.85 -5.34,-60.31 -34.2,-70.27 l -735.58,-254.05 c -28.85,-9.96 -60.31,5.34 -70.27,34.19 l -177.39,513.61 c -9.97,28.85 5.35,60.31 34.19,70.27 l 735.59,254.04 c 28.85,9.97 60.31,-5.33 70.27,-34.18 l 177.39,-513.61" /><path
         id="path86"
         style="fill:none;stroke:#ccd0d0;stroke-width:12.07940006;stroke-linecap:butt;stroke-linejoin:miter;stroke-miterlimit:10;stroke-dasharray:none;stroke-opacity:1"
         d="m 2618.26,4018.87 c 9.96,-28.85 -5.34,-60.31 -34.2,-70.27 l -735.58,-254.05 c -28.85,-9.96 -60.31,5.34 -70.27,34.19 l -177.39,513.61 c -9.97,28.85 5.35,60.31 34.19,70.27 l 735.59,254.04 c 28.85,9.97 60.31,-5.33 70.27,-34.18 z" /><path
         id="path88"
         style="fill:#404147;fill-opacity:1;fill-rule:nonzero;stroke:none"
         d="m 739.652,4957.68 c -3.339,9.67 -13.898,14.81 -23.589,11.47 v 0 l -101.18,-34.94 c -9.688,-3.35 -14.824,-13.91 -11.485,-23.59 l 33.942,-98.26 v 0 0 c 3.34,-9.69 13.906,-14.83 23.59,-11.48 l 101.183,34.94 c 9.684,3.35 14.821,13.9 11.481,23.59 v 0 0 l -33.942,98.27" /><path
         id="path90"
         style="fill:#404147;fill-opacity:1;fill-rule:nonzero;stroke:none"
         d="m 892.52,5010.47 c -3.34,9.68 -13.899,14.83 -23.579,11.48 v 0 L 767.75,4987 c -9.684,-3.34 -14.82,-13.9 -11.477,-23.57 l 33.938,-98.28 v 0 0 c 3.344,-9.68 13.91,-14.81 23.594,-11.47 l 101.179,34.94 c 9.688,3.34 14.825,13.91 11.481,23.59 v 0 0 l -33.945,98.26" /><path
         id="path92"
         style="fill:#404147;fill-opacity:1;fill-rule:nonzero;stroke:none"
         d="m 1045.94,5063.46 c -3.33,9.68 -13.88,14.82 -23.57,11.48 v 0 l -101.186,-34.95 c -9.692,-3.34 -14.832,-13.91 -11.493,-23.6 l 33.942,-98.25 v 0 0 c 3.344,-9.69 13.91,-14.83 23.594,-11.48 l 101.183,34.95 c 9.69,3.34 14.82,13.9 11.48,23.58 v 0 0 l -33.95,98.27" /><path
         id="path94"
         style="fill:#404147;fill-opacity:1;fill-rule:nonzero;stroke:none"
         d="m 1200.29,5116.77 c -3.35,9.67 -13.9,14.81 -23.59,11.47 v 0 l -101.2,-34.95 c -9.67,-3.34 -14.82,-13.9 -11.47,-23.58 l 33.94,-98.27 v 0 0 c 3.34,-9.68 13.91,-14.81 23.59,-11.48 l 101.17,34.95 c 9.69,3.34 14.83,13.9 11.49,23.58 v 0 0 l -33.93,98.28" /><path
         id="path96"
         style="fill:#404147;fill-opacity:1;fill-rule:nonzero;stroke:none"
         d="m 1353.16,5169.56 c -3.35,9.67 -13.9,14.81 -23.58,11.48 v 0 l -101.2,-34.95 c -9.68,-3.34 -14.82,-13.91 -11.47,-23.59 l 33.93,-98.26 v 0 0 c 3.35,-9.69 13.91,-14.82 23.59,-11.48 l 101.19,34.95 c 9.67,3.34 14.82,13.9 11.48,23.59 v 0 0 l -33.94,98.26" /><path
         id="path98"
         style="fill:#404147;fill-opacity:1;fill-rule:nonzero;stroke:none"
         d="m 1023.2,4886.34 c -3.35,9.67 -13.9,14.82 -23.587,11.47 v 0 l -101.191,-34.93 c -9.676,-3.35 -14.813,-13.92 -11.469,-23.6 l 33.938,-98.26 v 0 0 c 3.339,-9.69 13.906,-14.82 23.586,-11.48 l 101.183,34.94 c 9.69,3.35 14.82,13.91 11.48,23.58 v 0 0 l -33.94,98.28" /><path
         id="path100"
         style="fill:#404147;fill-opacity:1;fill-rule:nonzero;stroke:none"
         d="m 1176.08,4939.14 c -3.35,9.68 -13.91,14.82 -23.58,11.48 v 0 l -101.21,-34.95 c -9.67,-3.35 -14.81,-13.92 -11.47,-23.6 l 33.94,-98.26 v 0 0 c 3.35,-9.68 13.91,-14.82 23.59,-11.48 l 101.18,34.95 c 9.68,3.35 14.82,13.9 11.48,23.59 v 0 0 l -33.93,98.27" /><path
         id="path102"
         style="fill:#404147;fill-opacity:1;fill-rule:nonzero;stroke:none"
         d="m 1329.49,4992.12 c -3.34,9.68 -13.89,14.82 -23.57,11.48 v 0 l -101.2,-34.94 c -9.68,-3.35 -14.82,-13.92 -11.48,-23.6 l 33.95,-98.26 v 0 0 c 3.34,-9.68 13.9,-14.82 23.58,-11.48 l 101.18,34.95 c 9.69,3.34 14.82,13.9 11.49,23.59 v 0 0 l -33.95,98.26" /><path
         id="path104"
         style="fill:#404147;fill-opacity:1;fill-rule:nonzero;stroke:none"
         d="m 1483.83,5045.43 c -3.34,9.68 -13.9,14.81 -23.59,11.47 v 0 l -101.18,-34.95 c -9.68,-3.34 -14.82,-13.9 -11.49,-23.59 l 33.94,-98.25 v 0 0 c 3.35,-9.69 13.91,-14.83 23.6,-11.49 l 101.18,34.95 c 9.68,3.34 14.82,13.91 11.48,23.59 v 0 0 l -33.94,98.27" /><path
         id="path106"
         style="fill:#404147;fill-opacity:1;fill-rule:nonzero;stroke:none"
         d="m 1636.7,5098.22 c -3.34,9.68 -13.89,14.82 -23.58,11.48 v 0 l -101.19,-34.95 c -9.68,-3.34 -14.82,-13.91 -11.48,-23.59 l 33.94,-98.27 v 0 0 c 3.35,-9.68 13.91,-14.81 23.6,-11.47 l 101.18,34.94 c 9.67,3.35 14.81,13.91 11.46,23.6 v 0 0 l -33.93,98.26" /><path
         id="path108"
         style="fill:#404147;fill-opacity:1;fill-rule:nonzero;stroke:none"
         d="m 1790.13,5151.2 c -3.34,9.68 -13.9,14.82 -23.59,11.49 v 0 l -101.19,-34.95 c -9.68,-3.35 -14.82,-13.92 -11.48,-23.59 l 33.94,-98.26 v 0 0 c 3.35,-9.69 13.9,-14.82 23.59,-11.48 l 101.19,34.94 c 9.68,3.34 14.82,13.91 11.47,23.6 v 0 0 l -33.93,98.25" /><path
         id="path110"
         style="fill:#404147;fill-opacity:1;fill-rule:nonzero;stroke:none"
         d="m 1945.2,5204.76 c -3.35,9.69 -13.91,14.82 -23.59,11.48 v 0 l -101.19,-34.95 c -9.69,-3.34 -14.82,-13.9 -11.47,-23.59 l 33.93,-98.26 v 0 0 c 3.35,-9.69 13.9,-14.83 23.58,-11.48 l 101.19,34.95 c 9.68,3.34 14.83,13.9 11.48,23.59 v 0 0 l -33.93,98.26" /><path
         id="path112"
         style="fill:#404147;fill-opacity:1;fill-rule:nonzero;stroke:none"
         d="m 1114.13,4750.92 c -3.35,9.68 -13.91,14.82 -23.6,11.47 v 0 l -101.175,-34.94 c -9.675,-3.34 -14.828,-13.9 -11.484,-23.59 l 33.939,-98.25 v 0 0 c 3.35,-9.69 13.91,-14.82 23.59,-11.48 l 101.19,34.94 c 9.68,3.34 14.83,13.9 11.48,23.59 v 0 0 l -33.94,98.26" /><path
         id="path114"
         style="fill:#404147;fill-opacity:1;fill-rule:nonzero;stroke:none"
         d="m 1267,4803.71 c -3.34,9.68 -13.91,14.83 -23.59,11.49 v 0 l -101.18,-34.95 c -9.69,-3.34 -14.82,-13.91 -11.48,-23.59 l 33.94,-98.27 v 0 0 c 3.35,-9.68 13.9,-14.81 23.58,-11.47 l 101.18,34.95 c 9.69,3.34 14.83,13.9 11.48,23.59 v 0 0 l -33.93,98.25" /><path
         id="path116"
         style="fill:#404147;fill-opacity:1;fill-rule:nonzero;stroke:none"
         d="m 1420.42,4856.7 c -3.34,9.68 -13.9,14.83 -23.58,11.48 v 0 l -101.19,-34.95 c -9.68,-3.34 -14.82,-13.89 -11.48,-23.59 l 33.94,-98.26 v 0 0 c 3.35,-9.68 13.9,-14.81 23.58,-11.47 l 101.2,34.95 c 9.67,3.34 14.82,13.89 11.47,23.59 v 0 0 l -33.94,98.25" /><path
         id="path118"
         style="fill:#404147;fill-opacity:1;fill-rule:nonzero;stroke:none"
         d="m 1574.76,4910 c -3.34,9.68 -13.91,14.83 -23.59,11.48 v 0 l -101.18,-34.94 c -9.69,-3.35 -14.83,-13.91 -11.48,-23.59 l 33.93,-98.27 v 0 0 c 3.34,-9.69 13.91,-14.82 23.59,-11.47 l 101.19,34.94 c 9.67,3.36 14.82,13.91 11.48,23.6 v 0 0 l -33.94,98.25" /><path
         id="path120"
         style="fill:#404147;fill-opacity:1;fill-rule:nonzero;stroke:none"
         d="m 1727.64,4962.8 c -3.35,9.68 -13.9,14.83 -23.6,11.47 v 0 l -101.19,-34.94 c -9.68,-3.34 -14.82,-13.9 -11.47,-23.58 l 33.93,-98.26 v 0 0 c 3.35,-9.69 13.91,-14.83 23.6,-11.48 l 101.17,34.94 c 9.68,3.35 14.83,13.91 11.49,23.6 v 0 0 l -33.93,98.25" /><path
         id="path122"
         style="fill:#404147;fill-opacity:1;fill-rule:nonzero;stroke:none"
         d="m 1881.05,5015.79 c -3.35,9.68 -13.9,14.83 -23.58,11.48 v 0 l -101.19,-34.94 c -9.68,-3.36 -14.82,-13.91 -11.48,-23.59 l 33.94,-98.27 v 0 0 c 3.34,-9.69 13.91,-14.82 23.58,-11.47 l 101.19,34.94 c 9.68,3.35 14.82,13.9 11.48,23.6 v 0 0 l -33.94,98.25" /><path
         id="path124"
         style="fill:#404147;fill-opacity:1;fill-rule:nonzero;stroke:none"
         d="m 2036.13,5069.34 c -3.35,9.7 -13.92,14.82 -23.59,11.48 v 0 l -101.2,-34.95 c -9.68,-3.34 -14.83,-13.91 -11.48,-23.59 l 33.94,-98.25 v 0 0 c 3.34,-9.69 13.91,-14.83 23.59,-11.48 l 101.18,34.94 c 9.68,3.35 14.83,13.9 11.49,23.59 v 0 0 l -33.93,98.26" /><path
         id="path126"
         style="fill:#404147;fill-opacity:1;fill-rule:nonzero;stroke:none"
         d="m 2188.99,5122.14 c -3.35,9.69 -13.9,14.82 -23.58,11.48 v 0 l -101.19,-34.94 c -9.68,-3.35 -14.83,-13.91 -11.49,-23.6 l 33.94,-98.26 v 0 0 c 3.34,-9.69 13.91,-14.81 23.59,-11.48 l 101.19,34.95 c 9.68,3.34 14.82,13.9 11.48,23.59 v 0 0 l -33.94,98.26" /><path
         id="path128"
         style="fill:#404147;fill-opacity:1;fill-rule:nonzero;stroke:none"
         d="m 2342.42,5175.13 c -3.35,9.69 -13.91,14.82 -23.6,11.48 v 0 l -101.18,-34.95 c -9.68,-3.35 -14.82,-13.9 -11.47,-23.59 l 33.93,-98.26 v 0 0 c 3.35,-9.68 13.9,-14.82 23.59,-11.48 l 101.18,34.96 c 9.69,3.33 14.82,13.89 11.49,23.58 v 0 0 l -33.94,98.26" /><path
         id="path130"
         style="fill:#404147;fill-opacity:1;fill-rule:nonzero;stroke:none"
         d="m 956.965,4696.64 c -3.344,9.68 -13.902,14.83 -23.586,11.48 v 0 l -214.793,-74.19 c -9.695,-3.34 -14.824,-13.9 -11.481,-23.59 l 33.942,-98.26 v 0 0 c 3.348,-9.69 13.894,-14.82 23.578,-11.47 l 214.793,74.18 c 9.684,3.35 14.828,13.9 11.477,23.6 v 0 0 l -33.93,98.25" /><path
         id="path132"
         style="fill:#404147;fill-opacity:1;fill-rule:nonzero;stroke:none"
         d="m 1088.36,4573.77 c -3.34,9.68 -13.9,14.83 -23.58,11.48 v 0 L 770.527,4483.63 c -9.683,-3.34 -14.82,-13.9 -11.468,-23.58 l 33.933,-98.28 v 0 0 c 3.34,-9.68 13.899,-14.81 23.586,-11.47 l 294.252,101.62 c 9.68,3.35 14.81,13.91 11.46,23.59 v 0 0 l -33.93,98.26" /><path
         id="path134"
         style="fill:#404147;fill-opacity:1;fill-rule:nonzero;stroke:none"
         d="m 1240.46,4626.3 c -3.34,9.69 -13.9,14.83 -23.58,11.49 v 0 l -101.19,-34.95 c -9.68,-3.34 -14.82,-13.91 -11.48,-23.6 l 33.94,-98.25 v 0 0 c 3.35,-9.69 13.91,-14.83 23.59,-11.49 l 101.18,34.96 c 9.68,3.34 14.83,13.9 11.48,23.58 v 0 0 l -33.94,98.26" /><path
         id="path136"
         style="fill:#404147;fill-opacity:1;fill-rule:nonzero;stroke:none"
         d="m 1393.34,4679.11 c -3.34,9.68 -13.91,14.82 -23.59,11.48 v 0 l -101.19,-34.95 c -9.67,-3.34 -14.81,-13.91 -11.47,-23.59 l 33.93,-98.26 v 0 0 c 3.35,-9.69 13.92,-14.83 23.59,-11.49 l 101.19,34.95 c 9.68,3.34 14.82,13.91 11.48,23.59 v 0 0 l -33.94,98.27" /><path
         id="path138"
         style="fill:#404147;fill-opacity:1;fill-rule:nonzero;stroke:none"
         d="m 1546.76,4732.09 c -3.34,9.68 -13.9,14.82 -23.59,11.49 v 0 l -101.18,-34.95 c -9.68,-3.35 -14.83,-13.92 -11.48,-23.6 l 33.94,-98.26 v 0 0 c 3.34,-9.68 13.91,-14.82 23.59,-11.48 l 101.18,34.95 c 9.68,3.34 14.82,13.9 11.47,23.59 v 0 0 l -33.93,98.26" /><path
         id="path140"
         style="fill:#404147;fill-opacity:1;fill-rule:nonzero;stroke:none"
         d="m 1701.09,4785.39 c -3.34,9.68 -13.89,14.83 -23.59,11.49 v 0 l -101.18,-34.95 c -9.68,-3.34 -14.82,-13.91 -11.48,-23.59 l 33.94,-98.27 v 0 0 c 3.34,-9.68 13.91,-14.82 23.59,-11.47 l 101.18,34.94 c 9.68,3.34 14.82,13.91 11.48,23.59 v 0 0 l -33.94,98.26" /><path
         id="path142"
         style="fill:#404147;fill-opacity:1;fill-rule:nonzero;stroke:none"
         d="m 1853.97,4838.18 c -3.34,9.69 -13.9,14.83 -23.59,11.49 v 0 l -101.18,-34.95 c -9.69,-3.34 -14.83,-13.91 -11.49,-23.59 l 33.95,-98.26 v 0 0 c 3.34,-9.68 13.9,-14.82 23.58,-11.48 l 101.18,34.95 c 9.69,3.34 14.83,13.9 11.48,23.59 v 0 0 l -33.93,98.25" /><path
         id="path144"
         style="fill:#404147;fill-opacity:1;fill-rule:nonzero;stroke:none"
         d="m 2007.38,4891.17 c -3.34,9.68 -13.88,14.82 -23.58,11.49 v 0 l -101.18,-34.95 c -9.69,-3.34 -14.83,-13.91 -11.48,-23.6 l 33.93,-98.26 v 0 0 c 3.35,-9.67 13.91,-14.82 23.6,-11.47 l 101.17,34.94 c 9.69,3.34 14.83,13.91 11.48,23.59 v 0 0 l -33.94,98.26" /><path
         id="path146"
         style="fill:#404147;fill-opacity:1;fill-rule:nonzero;stroke:none"
         d="m 2162.46,4944.72 c -3.35,9.69 -13.9,14.83 -23.59,11.49 v 0 l -101.18,-34.95 c -9.7,-3.34 -14.82,-13.9 -11.48,-23.59 l 33.93,-98.26 v 0 0 c 3.36,-9.68 13.91,-14.82 23.59,-11.47 l 101.18,34.94 c 9.69,3.35 14.82,13.91 11.48,23.59 v 0 0 l -33.93,98.25" /><path
         id="path148"
         style="fill:#404147;fill-opacity:1;fill-rule:nonzero;stroke:none"
         d="m 2315.33,4997.52 c -3.35,9.68 -13.9,14.83 -23.59,11.49 v 0 l -101.19,-34.94 c -9.68,-3.36 -14.81,-13.92 -11.47,-23.6 l 33.94,-98.26 v 0 0 c 3.35,-9.69 13.89,-14.82 23.59,-11.48 l 101.18,34.95 c 9.69,3.34 14.83,13.9 11.48,23.59 v 0 0 l -33.94,98.25" /><path
         id="path150"
         style="fill:#404147;fill-opacity:1;fill-rule:nonzero;stroke:none"
         d="m 2406.1,4859.61 c -3.34,9.68 -13.9,14.82 -23.58,11.49 v 0 l -139.73,-48.26 c -9.69,-3.36 -14.82,-13.91 -11.48,-23.6 l 40.99,-118.7 v 0 l 0.01,-0.01 c 3.34,-9.68 13.9,-14.83 23.59,-11.48 l 139.73,48.26 c 9.69,3.35 14.82,13.9 11.47,23.58 v 0 0 l -41,118.72" /><path
         id="path152"
         style="fill:#404147;fill-opacity:1;fill-rule:nonzero;stroke:none"
         d="m 1446.68,4528.26 c -3.34,9.68 -13.91,14.81 -23.58,11.48 v 0 l -139.75,-48.26 c -9.67,-3.34 -14.81,-13.91 -11.47,-23.6 l 41,-118.7 v 0 -0.01 c 3.35,-9.67 13.9,-14.82 23.59,-11.48 l 139.73,48.26 c 9.68,3.35 14.83,13.91 11.48,23.59 v 0 0 l -41,118.72" /><path
         id="path154"
         style="fill:#404147;fill-opacity:1;fill-rule:nonzero;stroke:none"
         d="m 2214.68,4793.5 c -3.34,9.68 -13.89,14.82 -23.59,11.48 v 0 L 1474.22,4557.4 c -9.68,-3.35 -14.82,-13.92 -11.48,-23.6 l 41,-118.71 v 0 0 c 3.34,-9.69 13.91,-14.82 23.59,-11.48 l 716.88,247.59 c 9.68,3.34 14.82,13.9 11.47,23.58 v 0.01 0 l -41,118.71" /><path
         id="path156"
         style="fill:#404147;fill-opacity:1;fill-rule:nonzero;stroke:none"
         d="m 2562.27,4913.54 c -3.34,9.68 -13.9,14.82 -23.59,11.48 v 0 l -101.11,-34.91 c -9.69,-3.34 -14.83,-13.91 -11.48,-23.6 l 41,-118.71 v 0 0 c 3.34,-9.69 13.91,-14.82 23.59,-11.48 l 101.11,34.92 c 9.68,3.34 14.83,13.9 11.47,23.59 v 0 0 l -40.99,118.71" /><path
         id="path158"
         style="fill:#404147;fill-opacity:1;fill-rule:nonzero;stroke:none"
         d="m 1253.75,4461.63 c -3.33,9.68 -13.89,14.81 -23.58,11.49 v 0 l -101.12,-34.93 c -9.68,-3.35 -14.82,-13.9 -11.47,-23.59 l 41,-118.71 v 0 -0.01 c 3.34,-9.68 13.91,-14.82 23.59,-11.48 l 101.11,34.91 c 9.68,3.35 14.82,13.92 11.47,23.6 v 0.01 0 l -41,118.71" /><path
         id="path160"
         style="fill:#404147;fill-opacity:1;fill-rule:nonzero;stroke:none"
         d="m 947.461,4355.84 c -3.34,9.68 -13.902,14.82 -23.582,11.48 v 0 l -101.121,-34.91 c -9.688,-3.35 -14.82,-13.92 -11.481,-23.6 l 41.008,-118.7 v 0 -0.01 c 3.344,-9.69 13.906,-14.82 23.582,-11.48 l 101.121,34.92 c 9.688,3.34 14.825,13.91 11.473,23.59 l 0.008,0.01 v 0 l -41.008,118.7" /><path
         id="path162"
         style="fill:#404147;fill-opacity:1;fill-rule:nonzero;stroke:none"
         d="m 1100.34,4408.64 c -3.35,9.69 -13.9,14.82 -23.59,11.49 v 0 l -101.121,-34.92 c -9.676,-3.35 -14.816,-13.91 -11.473,-23.6 l 40.994,-118.71 v 0 -0.01 c 3.35,-9.68 13.92,-14.82 23.6,-11.48 l 101.11,34.93 c 9.68,3.34 14.82,13.9 11.48,23.59 v 0 0 l -41,118.71" /><path
         id="path164"
         style="fill:#404147;fill-opacity:1;fill-rule:nonzero;stroke:none"
         d="m 2740.05,4894.2 c -3.34,9.68 -13.89,14.81 -23.59,11.48 v 0 l -101.09,-34.92 c -9.7,-3.35 -14.83,-13.91 -11.49,-23.59 l 16.09,-46.57 v 0 l 0.01,-0.01 c 3.33,-9.67 13.89,-14.82 23.57,-11.48 l 101.12,34.93 c 9.68,3.34 14.82,13.9 11.47,23.59 v 0 0 l -16.09,46.57" /><path
         id="path166"
         style="fill:#404147;fill-opacity:1;fill-rule:nonzero;stroke:none"
         d="m 3048.99,5000.89 c -3.34,9.68 -13.9,14.82 -23.57,11.48 v 0 l -101.12,-34.92 c -9.69,-3.34 -14.83,-13.91 -11.48,-23.59 l 16.08,-46.57 v 0 -0.01 c 3.35,-9.68 13.9,-14.82 23.59,-11.47 l 101.12,34.92 c 9.68,3.35 14.81,13.9 11.47,23.59 v 0.01 0 l -16.09,46.56" /><path
         id="path168"
         style="fill:#404147;fill-opacity:1;fill-rule:nonzero;stroke:none"
         d="m 1027.8,5166.35 c -3.34,9.68 -13.91,14.83 -23.59,11.49 v 0 l -101.108,-34.93 c -9.68,-3.34 -14.832,-13.91 -11.485,-23.59 l 16.082,-46.57 v 0 h 0.012 c 3.344,-9.69 13.898,-14.83 23.578,-11.48 l 101.121,34.92 c 9.67,3.35 14.83,13.9 11.48,23.59 v 0 0 l -16.09,46.57" /><path
         id="path170"
         style="fill:#404147;fill-opacity:1;fill-rule:nonzero;stroke:none"
         d="m 868.359,5111.29 c -3.347,9.68 -13.91,14.82 -23.589,11.48 v 0 l -101.118,-34.93 c -9.687,-3.34 -14.808,-13.9 -11.472,-23.58 l 16.078,-46.57 v 0 0 c 3.347,-9.69 13.906,-14.83 23.594,-11.49 l 101.113,34.93 c 9.68,3.34 14.816,13.9 11.473,23.58 l -0.004,0.01 v 0 l -16.075,46.57" /><path
         id="path172"
         style="fill:#404147;fill-opacity:1;fill-rule:nonzero;stroke:none"
         d="m 705.93,5055.19 c -3.34,9.68 -13.895,14.83 -23.575,11.48 v 0 l -101.117,-34.91 c -9.691,-3.35 -14.828,-13.92 -11.48,-23.6 l 16.082,-46.57 v 0 0 c 3.348,-9.68 13.906,-14.83 23.594,-11.48 l 101.101,34.92 c 9.684,3.34 14.824,13.9 11.481,23.59 v 0 0 l -16.086,46.57" /><path
         id="path174"
         style="fill:#404147;fill-opacity:1;fill-rule:nonzero;stroke:none"
         d="m 2871.75,5020.43 c -3.34,9.68 -13.88,14.82 -23.58,11.49 v 0 l -101.12,-34.93 c -9.69,-3.35 -14.82,-13.91 -11.47,-23.6 l 40.99,-118.71 v 0 h 0.01 c 3.33,-9.69 13.9,-14.82 23.58,-11.48 l 101.11,34.93 c 9.69,3.34 14.83,13.89 11.48,23.58 v 0.01 0 l -41,118.71" /><path
         id="path176"
         style="fill:#404147;fill-opacity:1;fill-rule:nonzero;stroke:none"
         d="m 2468.75,5050.52 c -3.34,9.67 -13.9,14.82 -23.57,11.48 v 0 l -101.21,-34.95 c -9.67,-3.34 -14.81,-13.91 -11.47,-23.6 l 33.94,-98.25 v 0 0 c 3.34,-9.69 13.9,-14.82 23.58,-11.48 l 101.19,34.94 c 9.68,3.34 14.83,13.91 11.49,23.59 v 0 0 l -33.95,98.27" /><path
         id="path178"
         style="fill:#404147;fill-opacity:1;fill-rule:nonzero;stroke:none"
         d="m 2623.1,5103.82 c -3.34,9.68 -13.92,14.82 -23.6,11.48 v 0 l -101.19,-34.95 c -9.68,-3.34 -14.82,-13.92 -11.48,-23.6 l 33.94,-98.26 v 0 0 c 3.34,-9.67 13.92,-14.81 23.6,-11.47 l 101.18,34.94 c 9.67,3.34 14.83,13.91 11.48,23.59 v 0 0 l -33.93,98.27" /><path
         id="path180"
         style="fill:#404147;fill-opacity:1;fill-rule:nonzero;stroke:none"
         d="m 868.047,4832.75 c -3.336,9.68 -13.902,14.82 -23.582,11.48 v 0 l -177.356,-61.25 c -9.683,-3.35 -14.82,-13.91 -11.472,-23.59 l 33.933,-98.26 v 0 0 c 3.344,-9.69 13.903,-14.83 23.59,-11.49 l 177.348,61.25 c 9.687,3.36 14.824,13.92 11.48,23.59 v 0 0 l -33.941,98.27" /><path
         id="path182"
         style="fill:#404147;fill-opacity:1;fill-rule:nonzero;stroke:none"
         d="m 2893.58,4957.24 -136.18,-47.04 -1.33,3.85 136.18,47.02 1.33,-3.83" /><path
         id="path184"
         style="fill:#404147;fill-opacity:1;fill-rule:nonzero;stroke:none"
         d="M 811.875,5223.03 H 674.996 l 14.582,-42.24 z" /><path
         id="path186"
         style="fill:#404147;fill-opacity:1;fill-rule:nonzero;stroke:none"
         d="m 1226.06,5182.7 v -0.01 c 3.34,-9.67 13.9,-14.81 23.59,-11.47 l 101.11,34.92 c 7.46,2.58 12.18,9.45 12.44,16.89 h -151.06 l 13.92,-40.33" /><path
         id="path188"
         style="fill:#404147;fill-opacity:1;fill-rule:nonzero;stroke:none"
         d="m 1559.33,5130.78 c 3.34,-9.69 13.9,-14.83 23.59,-11.48 l 101.18,34.94 c 9.69,3.35 14.82,13.92 11.49,23.6 l -15.61,45.19 h -152.51 l 31.86,-92.25" /><path
         id="path190"
         style="fill:#404147;fill-opacity:1;fill-rule:nonzero;stroke:none"
         d="m 1698.58,5223.03 13.63,-39.46 c 3.34,-9.68 13.9,-14.82 23.58,-11.47 l 101.18,34.94 c 7.17,2.48 11.81,8.9 12.41,15.99 h -150.8" /><path
         id="path192"
         style="fill:#404147;fill-opacity:1;fill-rule:nonzero;stroke:none"
         d="m 1961.82,5210.5 33.93,-98.27 c 3.34,-9.68 13.91,-14.82 23.59,-11.46 l 101.19,34.93 c 9.68,3.35 14.82,13.91 11.48,23.59 l -22.01,63.74 h -147.94 c -1.46,-3.9 -1.71,-8.28 -0.24,-12.53" /><path
         id="path194"
         style="fill:#404147;fill-opacity:1;fill-rule:nonzero;stroke:none"
         d="m 2149.17,5165.22 c 3.34,-9.68 13.91,-14.82 23.59,-11.47 l 101.18,34.93 c 9.7,3.36 14.83,13.91 11.49,23.6 l -3.71,10.75 h -152.51 l 19.96,-57.81" /><path
         id="path196"
         style="fill:#404147;fill-opacity:1;fill-rule:nonzero;stroke:none"
         d="m 2301.95,5223.03 1.56,-4.51 c 3.34,-9.68 13.89,-14.82 23.58,-11.47 l 46.27,15.98 h -71.41" /><path
         id="path198"
         style="fill:#404147;fill-opacity:1;fill-rule:nonzero;stroke:none"
         d="m 2547.3,5135.91 c 3.35,-9.69 13.91,-14.82 23.6,-11.48 l 101.18,34.95 c 9.69,3.35 14.82,13.89 11.47,23.58 l -13.83,40.07 h -152.5 l 30.08,-87.12" /><path
         id="path200"
         style="fill:#404147;fill-opacity:1;fill-rule:nonzero;stroke:none"
         d="m 2692.62,5223.03 11.4,-33 c 3.34,-9.69 13.9,-14.82 23.58,-11.48 l 128.78,44.48 h -163.76" /><path
         id="path202"
         style="fill:#404147;fill-opacity:1;fill-rule:nonzero;stroke:none"
         d="m 1061.22,5197.52 c -9.69,-3.34 -14.82,-13.9 -11.48,-23.59 l 16.09,-46.57 v 0 c 3.34,-9.68 13.91,-14.82 23.59,-11.48 l 101.11,34.92 c 9.68,3.35 14.82,13.9 11.48,23.58 l -0.01,0.02 -16.08,46.56 c -0.26,0.73 -0.63,1.39 -0.96,2.07 h -49.87 l -73.87,-25.51" /><path
         id="path204"
         style="fill:#404147;fill-opacity:1;fill-rule:nonzero;stroke:none"
         d="m 1381.8,5199.08 c -9.68,-3.35 -14.82,-13.91 -11.47,-23.6 l 33.93,-98.25 c 3.35,-9.69 13.91,-14.83 23.59,-11.48 l 101.19,34.94 c 9.68,3.34 14.82,13.91 11.48,23.59 l -33.94,98.27 c -0.06,0.17 -0.16,0.31 -0.23,0.48 h -55.19 l -69.36,-23.95" /><path
         id="path206"
         style="fill:#404147;fill-opacity:1;fill-rule:nonzero;stroke:none"
         d="m 2371.98,5204.96 c -9.69,-3.34 -14.82,-13.9 -11.48,-23.58 l 33.93,-98.27 c 3.35,-9.68 13.9,-14.82 23.59,-11.47 l 101.18,34.95 c 9.7,3.34 14.83,13.89 11.48,23.58 l -32.07,92.86 h -74.32 l -52.31,-18.07" /><path
         id="path208"
         style="fill:#404147;fill-opacity:1;fill-rule:nonzero;stroke:none"
         d="m 2654.01,5134.13 c -9.68,-3.35 -14.82,-13.91 -11.47,-23.6 l 33.94,-98.26 c 3.34,-9.68 13.9,-14.82 23.58,-11.48 l 294.25,101.63 c 9.68,3.34 14.81,13.9 11.47,23.59 l -33.51,97.02 h -60.84 l -257.42,-88.9" /><path
         id="path210"
         style="fill:#404147;fill-opacity:1;fill-rule:nonzero;stroke:none"
         d="m 1534.77,1022.52 c -21.28,-33.032 -65.29,-42.579 -98.31,-21.29 L 184.027,1808 c -33.011,21.28 -42.539,65.28 -21.269,98.31 l 610.207,947.3 c 21.281,33.02 65.277,42.54 98.297,21.27 L 2123.71,2068.11 c 33.01,-21.27 42.54,-65.29 21.28,-98.31 l -610.22,-947.28" /><path
         id="path212"
         style="fill:#f4eac7;fill-opacity:1;fill-rule:nonzero;stroke:none"
         d="m 1522.32,1038 c -21.27,-33.02 -65.29,-42.551 -98.31,-21.28 L 203.281,1803.06 c -33.031,21.28 -42.554,65.3 -21.277,98.33 l 603.418,936.72 c 21.262,33.02 65.281,42.56 98.312,21.27 L 2104.45,2073.03 c 33.02,-21.26 42.55,-65.28 21.29,-98.29 L 1522.32,1038" /><path
         id="path214"
         style="fill:#d1c8a9;fill-opacity:1;fill-rule:nonzero;stroke:none"
         d="m 2104.95,1943.84 -1339.516,862.87 1.683,2.64 1339.533,-862.88 -1.7,-2.63" /><path
         id="path216"
         style="fill:#d1c8a9;fill-opacity:1;fill-rule:nonzero;stroke:none"
         d="m 1730.63,1362.74 -1339.552,862.88 1.727,2.63 1339.515,-862.88 -1.69,-2.63" /><path
         id="path218"
         style="fill:#d1c8a9;fill-opacity:1;fill-rule:nonzero;stroke:none"
         d="m 1764.66,1415.56 -1339.539,862.88 1.703,2.64 1339.526,-862.88 -1.69,-2.64" /><path
         id="path220"
         style="fill:#d1c8a9;fill-opacity:1;fill-rule:nonzero;stroke:none"
         d="m 1798.7,1468.4 -1339.544,862.87 1.68,2.64 1339.544,-862.89 -1.68,-2.62" /><path
         id="path222"
         style="fill:#d1c8a9;fill-opacity:1;fill-rule:nonzero;stroke:none"
         d="m 1832.71,1521.22 -1339.507,862.87 1.676,2.64 1339.541,-862.87 -1.71,-2.64" /><path
         id="path224"
         style="fill:#d1c8a9;fill-opacity:1;fill-rule:nonzero;stroke:none"
         d="m 1866.74,1574.06 -1339.51,862.88 1.696,2.61 1339.514,-862.87 -1.7,-2.62" /><path
         id="path226"
         style="fill:#d1c8a9;fill-opacity:1;fill-rule:nonzero;stroke:none"
         d="m 1900.78,1626.87 -1339.55,862.87 1.731,2.65 1339.519,-862.88 -1.7,-2.64" /><path
         id="path228"
         style="fill:#d1c8a9;fill-opacity:1;fill-rule:nonzero;stroke:none"
         d="m 1934.8,1679.7 -1339.534,862.88 1.699,2.63 1339.535,-862.89 -1.7,-2.62" /><path
         id="path230"
         style="fill:#d1c8a9;fill-opacity:1;fill-rule:nonzero;stroke:none"
         d="m 1968.82,1732.52 -1339.511,862.87 1.699,2.64 1339.532,-862.87 -1.72,-2.64" /><path
         id="path232"
         style="fill:#d1c8a9;fill-opacity:1;fill-rule:nonzero;stroke:none"
         d="m 2002.86,1785.34 -1339.524,862.89 1.684,2.64 1339.55,-862.88 -1.71,-2.65" /><path
         id="path234"
         style="fill:#d1c8a9;fill-opacity:1;fill-rule:nonzero;stroke:none"
         d="m 2036.89,1838.18 -1339.531,862.86 1.704,2.65 1339.527,-862.88 -1.7,-2.63" /><path
         id="path236"
         style="fill:#d1c8a9;fill-opacity:1;fill-rule:nonzero;stroke:none"
         d="m 2070.92,1891.01 -1339.549,862.87 1.711,2.66 1339.538,-862.89 -1.7,-2.64" /><path
         id="path238"
         style="fill:#d1c8a9;fill-opacity:1;fill-rule:nonzero;stroke:none"
         d="m 1764.66,1415.56 -1339.539,862.88 1.703,2.64 1339.526,-862.88 -1.69,-2.64" /><path
         id="path240"
         style="fill:#d1c8a9;fill-opacity:1;fill-rule:nonzero;stroke:none"
         d="m 1526.46,1045.78 -1339.546,862.87 1.684,2.65 1339.552,-862.88 -1.69,-2.64" /><path
         id="path242"
         style="fill:#d1c8a9;fill-opacity:1;fill-rule:nonzero;stroke:none"
         d="m 1560.48,1098.6 -1339.519,862.87 1.691,2.66 1339.548,-862.88 -1.72,-2.65" /><path
         id="path244"
         style="fill:#d1c8a9;fill-opacity:1;fill-rule:nonzero;stroke:none"
         d="m 1594.51,1151.43 -1339.53,862.86 1.708,2.65 1339.512,-862.88 -1.69,-2.63" /><path
         id="path246"
         style="fill:#d1c8a9;fill-opacity:1;fill-rule:nonzero;stroke:none"
         d="m 1628.54,1204.25 -1339.548,862.88 1.707,2.64 1339.531,-862.88 -1.69,-2.64" /><path
         id="path248"
         style="fill:#d1c8a9;fill-opacity:1;fill-rule:nonzero;stroke:none"
         d="m 1662.57,1257.08 -1339.523,862.88 1.68,2.63 1339.543,-862.87 -1.7,-2.64" /><path
         id="path250"
         style="fill:#d1c8a9;fill-opacity:1;fill-rule:nonzero;stroke:none"
         d="m 1696.6,1309.9 -1339.53,862.89 1.684,2.64 1339.546,-862.89 -1.7,-2.64" /><path
         id="path252"
         style="fill:#d1c8a9;fill-opacity:1;fill-rule:nonzero;stroke:none"
         d="M 173.746,1842.4 1472.04,1006.09 c 1.54,0.2 3.07,0.46 4.6,0.76 L 172.535,1846.92 c 0.348,-1.53 0.746,-3.03 1.211,-4.52" /><path
         id="path254"
         style="fill:#d1c8a9;fill-opacity:1;fill-rule:nonzero;stroke:none"
         d="M 803.344,2857.02 2135.54,1998.88 c 0.22,1.1 0.46,2.21 0.63,3.33 L 806.129,2858.98 c -0.973,-0.6 -1.867,-1.28 -2.785,-1.96" /><path
         id="path256"
         style="fill:#404147;fill-opacity:1;fill-rule:nonzero;stroke:none"
         d="m 1389.44,1031.51 -39.6,25.52 687.23,1066.88 39.62,-25.52 -687.25,-1066.88" /><path
         id="path258"
         style="fill:#404147;fill-opacity:1;fill-rule:nonzero;stroke:none"
         d="m 818.27,1406.91 -4.625,2.99 683.835,1061.59 4.62,-2.98 -683.83,-1061.6" /><path
         id="path260"
         style="fill:#faf2e9;fill-opacity:1;fill-rule:nonzero;stroke:none"
         d="m 5602.29,4076.46 c -253.52,13.07 -448.46,229.17 -435.41,482.69 13.07,253.54 229.18,448.47 482.71,435.42 253.54,-13.06 448.48,-229.18 435.41,-482.72 -13.04,-253.52 -229.16,-448.44 -482.71,-435.39" /><path
         id="path262"
         style="fill:#f5e2cf;fill-opacity:1;fill-rule:nonzero;stroke:none"
         d="m 5603.07,4091.46 c -245.24,12.63 -433.82,221.67 -421.18,466.92 12.63,245.26 221.68,433.82 466.94,421.19 245.24,-12.64 433.82,-221.69 421.18,-466.96 -12.64,-245.23 -221.7,-433.77 -466.94,-421.15" /><path
         id="path264"
         style="fill:#e9d1be;fill-opacity:1;fill-rule:nonzero;stroke:none"
         d="m 5627.8,4171.59 c -190.14,9.79 -336.36,171.88 -326.58,362.05 9.81,190.16 171.91,336.37 362.07,326.58 190.17,-9.8 336.37,-171.9 326.57,-362.06 -9.79,-190.15 -171.88,-336.37 -362.06,-326.57" /><path
         id="path266"
         style="fill:#fffcfa;fill-opacity:1;fill-rule:nonzero;stroke:none"
         d="m 5608.21,4191.2 c -190.15,9.79 -336.38,171.89 -326.6,362.04 9.8,190.17 171.92,336.38 362.07,326.58 190.17,-9.8 336.37,-171.9 326.58,-362.06 -9.79,-190.15 -171.88,-336.37 -362.05,-326.56" /><path
         id="path268"
         style="fill:#faf2e9;fill-opacity:1;fill-rule:nonzero;stroke:none"
         d="m 5609.27,4211.91 c -178.72,9.21 -316.14,161.55 -306.94,340.26 9.21,178.74 161.57,316.15 340.29,306.95 178.72,-9.21 316.16,-161.55 306.94,-340.29 -9.2,-178.72 -161.55,-316.13 -340.29,-306.92" /><path
         id="path270"
         style="fill:#d9b38e;fill-opacity:1;fill-rule:nonzero;stroke:none"
         d="m 5611.77,4260.39 c -151.94,7.83 -268.76,137.34 -260.93,289.28 7.82,151.96 137.34,268.8 289.27,260.98 151.96,-7.83 268.8,-137.37 260.96,-289.33 -7.83,-151.94 -137.36,-268.75 -289.3,-260.93" /><path
         id="path272"
         style="fill:#faf2e9;fill-opacity:1;fill-rule:nonzero;stroke:none"
         d="m 5821.3,4251.41 65.06,-74 c 12.15,-13.81 33.18,-15.18 46.99,-3.02 l 18.84,16.56 c 13.8,12.14 15.15,33.19 3.01,46.99 l -65.95,75 c -19.83,-23.41 -42.71,-44.12 -67.95,-61.53" /><path
         id="path274"
         style="fill:#edcaa5;fill-opacity:1;fill-rule:nonzero;stroke:none"
         d="m 5617.65,4260.09 c -148.69,7.66 -263.01,134.41 -255.36,283.09 7.67,148.71 134.41,263.06 283.1,255.4 148.7,-7.65 263.05,-134.43 255.38,-283.13 -7.65,-148.69 -134.42,-263.02 -283.12,-255.36" /><path
         id="path276"
         style="fill:#505256;fill-opacity:1;fill-rule:nonzero;stroke:none"
         d="M 7615.81,1493.43 6861.94,1721.54 6484.14,472.941 7238.01,244.84 c 33.02,-9.981 67.91,8.672 77.92,41.68 l 341.61,1128.98 c 9.99,33.05 -8.7,67.95 -41.73,77.93" /><path
         id="path278"
         style="fill:#f0a60f;fill-opacity:1;fill-rule:nonzero;stroke:none"
         d="M 7434.86,679.57 6621.17,925.801 6713.58,1231.27 7527.3,985.059 7434.86,679.57" /><path
         id="path280"
         style="fill:#404147;fill-opacity:1;fill-rule:nonzero;stroke:none"
         d="m 7197.71,257 -38.5,11.68 377.81,1248.59 38.52,-11.65 L 7197.71,257" /><path
         id="path282"
         style="fill:#404147;fill-opacity:1;fill-rule:nonzero;stroke:none"
         d="m 6499.48,941.148 c -0.43,-3.82 -3.86,-6.558 -7.68,-6.128 v 0 c -3.83,0.429 -6.59,3.871 -6.17,7.699 l 3.05,27.222 c 0.43,3.829 3.88,6.59 7.71,6.161 v 0 c 3.82,-0.43 6.57,-3.872 6.14,-7.704 l -3.05,-27.25" /><path
         id="path284"
         style="fill:#404147;fill-opacity:1;fill-rule:nonzero;stroke:none"
         d="m 6592.43,2182.41 c 0,0 -9.29,1.04 -17.46,1.96 -8.17,0.91 -15.88,-8.65 -19.36,-13.42 -3.49,-4.78 -27.21,-124.55 -30.88,-163.97 -3.67,-39.42 -19.46,-203.61 -17.25,-205.33 2.21,-1.72 12.39,-10.56 17.95,-3.27 5.57,7.27 20.09,49.17 10.87,56.84 -9.24,7.67 -15.54,23.86 -11.08,44.02 4.47,20.15 38.16,246.5 44.63,256.1 6.49,9.6 15.69,8.34 20.29,6.43 7.54,11.6 2.29,20.64 2.29,20.64" /><path
         id="path286"
         style="fill:#505256;fill-opacity:1;fill-rule:nonzero;stroke:none"
         d="m 6681.1,2180.32 c 4.5,68.63 -40.91,75.29 -40.91,75.29 0,0 -45.76,3.53 -56.54,-64.4 -10.77,-67.92 -32.5,-233.65 -38.03,-283.19 -5.54,-49.53 -17.68,-215.02 -17.68,-215.02 l 48.72,-5.45 48.73,-5.45 c 0,0 24.71,164.08 30.24,213.62 5.54,49.53 20.98,215.97 25.47,284.6" /><path
         id="path288"
         style="fill:#e8e7e6;fill-opacity:1;fill-rule:nonzero;stroke:none"
         d="m 6532.03,1747.27 c -2.39,-31.33 -4.09,-54.27 -4.09,-54.27 l 48.72,-5.45 48.73,-5.45 c 0,0 3.42,22.75 8.02,53.85 l -101.38,11.32" /><path
         id="path290"
         style="fill:#e8e7e6;fill-opacity:1;fill-rule:nonzero;stroke:none"
         d="m 6532.65,1755.32 101.92,-11.4 c 0.89,6.07 1.83,12.4 2.76,18.87 l -103.23,11.55 c -0.5,-6.53 -0.99,-12.91 -1.45,-19.02" /><path
         id="path292"
         style="fill:#e8e7e6;fill-opacity:1;fill-rule:nonzero;stroke:none"
         d="m 6583.65,2191.21 c -0.32,-2.02 -0.64,-4.13 -0.98,-6.33 l 98,-10.96 c 0.15,2.22 0.3,4.35 0.43,6.4 0.35,5.36 0.36,10.3 0.15,14.93 l -94.45,10.56 c -1.22,-4.47 -2.3,-9.29 -3.15,-14.6" /><path
         id="path294"
         style="fill:#505256;fill-opacity:1;fill-rule:nonzero;stroke:none"
         d="m 6580.12,1277.24 -97.45,10.89 45.27,404.87 97.45,-10.9 -45.27,-404.86" /><path
         id="path296"
         style="fill:#e8e7e6;fill-opacity:1;fill-rule:nonzero;stroke:none"
         d="m 6476.83,1125.78 c 0,40.77 5.84,162.35 5.84,162.35 l 97.45,-10.89 c 0,0 -21.17,-119.89 -30.17,-159.62 -8.98,-39.75 -73.12,-32.58 -73.12,8.16" /><path
         id="path298"
         style="fill:#505256;fill-opacity:1;fill-rule:nonzero;stroke:none"
         d="m 6508.14,959.281 -25.5,2.867 c 0,0 -5.81,122.892 -5.81,163.632 19.26,-2.14 51.51,-5.76 73.12,-8.16 -8.98,-39.75 -41.81,-158.339 -41.81,-158.339" /><path
         id="path300"
         style="fill:#e64660;fill-opacity:1;fill-rule:nonzero;stroke:none"
         d="m 2253.08,388.441 c -3.22,-2.941 -8.21,-2.703 -11.16,0.52 l -253.53,278.41 c -2.95,3.231 -2.71,8.219 0.52,11.168 l 106.05,97.621 c 3.23,2.949 8.22,2.719 11.16,-0.519 l 253.54,-278.403 c 2.94,-3.226 2.7,-8.226 -0.52,-11.16 l -106.06,-97.637" /><path
         id="path302"
         style="fill:#f25268;fill-opacity:1;fill-rule:nonzero;stroke:none"
         d="m 2303.67,332.922 c -3.23,-2.942 -8.23,-2.692 -11.16,0.527 l -253.54,278.41 c -2.93,3.219 -2.7,8.219 0.52,11.161 l 106.06,97.64 c 3.22,2.942 8.21,2.699 11.15,-0.531 l 253.53,-278.41 c 2.95,-3.231 2.72,-8.219 -0.51,-11.16 l -106.05,-97.637" /><path
         id="path304"
         style="fill:#51c3a9;fill-opacity:1;fill-rule:nonzero;stroke:none"
         d="m 1009.16,668.328 41.38,23.934 v 0 l 108,62.398 1189.46,687.31 109.55,93.03 31.74,27.77 -39.32,-14.65 -135.79,-47.63 L 1124.72,813.199 1013.2,748.738 v 0 l -37.852,-21.867 33.812,-58.543" /><path
         id="path306"
         style="fill:#f4eac7;fill-opacity:1;fill-rule:nonzero;stroke:none"
         d="m 2347.45,1560.37 135.78,47.63 7.59,-13.12 -109.56,-93.03 -33.81,58.52" /><path
         id="path308"
         style="fill:#f9b010;fill-opacity:1;fill-rule:nonzero;stroke:none"
         d="m 2372.71,1516.64 -1189.46,-687.3 8.55,-14.801 1189.46,687.311 c 0,0 12.95,14.88 11.87,16.73 -1.07,1.86 -20.42,-1.94 -20.42,-1.94" /><path
         id="path310"
         style="fill:#f9b010;fill-opacity:1;fill-rule:nonzero;stroke:none"
         d="m 2347.45,1560.37 -1189.46,-687.3 8.92,-15.468 1189.48,687.298 c 0,0 12.68,15.33 11.52,17.33 -1.07,1.87 -20.46,-1.86 -20.46,-1.86" /><path
         id="path312"
         style="fill:#404147;fill-opacity:1;fill-rule:nonzero;stroke:none"
         d="m 2483.23,1608 7.59,-13.12 31.74,27.76 z" /><path
         id="path314"
         style="fill:#d5a26d;fill-opacity:1;fill-rule:nonzero;stroke:none"
         d="m 1191.8,814.539 -111.54,-64.437 -33.8,58.519 111.53,64.449 33.81,-58.531" /><path
         id="path316"
         style="fill:#f25268;fill-opacity:1;fill-rule:nonzero;stroke:none"
         d="m 1083.8,752.129 -41.37,-23.899 -33.83,58.52 41.39,23.91 33.81,-58.531" /><path
         id="path318"
         style="fill:#f9b010;fill-opacity:1;fill-rule:nonzero;stroke:none"
         d="M 2373.39,1515.47 1183.93,828.148 1166.24,858.789 2355.7,1546.09 c 0,0 21.52,-0.03 24.89,-5.8 3.41,-5.83 -7.2,-24.82 -7.2,-24.82" /><path
         id="path320"
         style="fill:#f7f7f7;fill-opacity:1;fill-rule:nonzero;stroke:none"
         d="m 3470.01,2587.86 c 0,0 2.43,1.62 5.66,1.62 4.05,0 6.47,-1.62 6.47,-1.62 V 2008.6 c 0,0 -1.61,-1.62 -6.47,-1.62 -4.85,0 -5.66,1.62 -5.66,1.62 v 291.25 H 3131.84 V 2008.6 c 0,0 -1.62,-1.62 -5.67,-1.62 -5.66,0 -6.47,1.62 -6.47,1.62 v 579.26 c 0,0 2.43,1.62 6.47,1.62 3.24,0 5.67,-1.62 5.67,-1.62 v -275.88 h 338.17 v 275.88" /><path
         id="path322"
         style="fill:#f7f7f7;fill-opacity:1;fill-rule:nonzero;stroke:none"
         d="m 3970,2589.48 c 1.61,-4.05 1.61,-8.1 0,-12.14 h -294.49 v -268.6 h 254.03 c 1.62,-4.04 1.62,-8.08 0,-12.13 h -254.03 v -277.5 h 302.57 c 1.62,-4.04 1.62,-8.09 0,-12.13 h -314.71 v 582.5 H 3970" /><path
         id="path324"
         style="fill:#f7f7f7;fill-opacity:1;fill-rule:nonzero;stroke:none"
         d="m 4125.33,2289.33 h 179.6 c 81.72,0 135.92,54.2 135.92,144 0,89.81 -54.2,144.01 -135.92,144.01 h -179.6 z m 177.99,300.15 c 94.65,0 149.67,-62.3 149.67,-156.15 0,-83.32 -44.5,-141.57 -122.97,-154.52 l 139.15,-270.21 c 0,0 -4.04,-1.62 -7.29,-1.62 -4.85,0 -6.47,1.62 -6.47,1.62 l -137.53,268.6 h -192.55 v -268.6 c 0,0 -1.62,-1.62 -6.47,-1.62 -4.05,0 -5.66,1.62 -5.66,1.62 v 580.88 h 190.12" /><path
         id="path326"
         style="fill:#f7f7f7;fill-opacity:1;fill-rule:nonzero;stroke:none"
         d="m 4914.94,2589.48 c 1.62,-4.05 1.62,-8.1 0,-12.14 h -294.48 v -268.6 h 254.03 c 1.62,-4.04 1.62,-8.08 0,-12.13 h -254.03 v -277.5 h 302.58 c 1.61,-4.04 1.61,-8.09 0,-12.13 h -314.72 v 582.5 h 306.62" /><path
         id="path328"
         style="fill:#404147;fill-opacity:1;fill-rule:nonzero;stroke:none"
         d="m 3185.57,2759.65 c 17.62,0 27.21,11.15 27.21,29.89 0,18.96 -9.59,30.12 -27.21,30.12 h -32.58 v -60.01 z m -32.58,-80.09 c 0,0 -3.79,-1.56 -11.15,-1.56 -8.26,0 -11.6,1.56 -11.6,1.56 v 159.06 h 58.23 c 29.44,0 47.96,-19.86 47.96,-49.08 0,-29.01 -18.52,-48.86 -47.96,-48.86 h -35.48 v -61.12" /><path
         id="path330"
         style="fill:#404147;fill-opacity:1;fill-rule:nonzero;stroke:none"
         d="m 3265.46,2837.05 c 0,0 3.79,1.57 11.16,1.57 7.8,0 11.59,-1.57 11.59,-1.57 v -139.42 h 66.71 c 1.11,-2.68 1.78,-6.25 1.78,-9.82 0,-3.57 -0.67,-6.91 -1.78,-9.81 h -89.46 v 159.05" /><path
         id="path332"
         style="fill:#404147;fill-opacity:1;fill-rule:nonzero;stroke:none"
         d="m 3433.25,2813.86 c 0,0 -2.01,-8.93 -5.8,-20.08 l -20.53,-56.44 h 53.1 l -20.3,56.44 c -4.02,11.6 -5.8,20.08 -5.8,20.08 z m 1.12,24.76 c 8.47,0 13.38,-1.57 13.38,-1.57 l 56,-157.49 c 0,0 -4.02,-1.56 -12.28,-1.56 -7.58,0 -11.15,1.56 -11.15,1.56 l -13.83,39.26 h -66.04 l -14.05,-39.26 c 0,0 -3.79,-1.56 -10.93,-1.56 -6.92,0 -10.48,1.56 -10.48,1.56 l 55.99,157.49 c 0,0 5.58,1.57 13.39,1.57" /><path
         id="path334"
         style="fill:#404147;fill-opacity:1;fill-rule:nonzero;stroke:none"
         d="m 3581.64,2840.85 c 24.76,0 38.15,-7.59 38.15,-7.59 0.44,-7.36 -2.69,-12.49 -6.7,-16.95 0,0 -12.94,5.13 -28.78,5.13 -25.88,0 -43.94,-13.61 -43.94,-63.36 0,-49.75 18.06,-62.46 43.94,-62.46 17.62,0 31.01,5.13 31.01,5.13 4.47,-4.24 6.69,-10.71 6.92,-17.4 0,0 -14.51,-7.59 -40.6,-7.59 -42.61,0 -64.92,28.11 -64.92,82.54 0,53.99 22.08,82.55 64.92,82.55" /><path
         id="path336"
         style="fill:#404147;fill-opacity:1;fill-rule:nonzero;stroke:none"
         d="m 3739.61,2838.62 c 0.89,-2.68 1.79,-5.58 1.79,-8.71 0,-3.56 -0.67,-6.91 -1.79,-9.81 h -67.82 v -51.76 h 56.67 c 0.89,-2.67 1.78,-5.79 1.78,-8.92 0,-3.12 -0.67,-6.47 -1.78,-9.37 h -56.67 v -53.54 h 70.05 c 0.89,-2.9 1.79,-5.8 1.79,-8.92 0,-3.35 -0.67,-6.47 -1.79,-9.59 h -92.8 v 160.62 h 90.57" /><path
         id="path338"
         style="fill:#404147;fill-opacity:1;fill-rule:nonzero;stroke:none"
         d="m 3923.03,2838.62 c 7.59,0 12.72,-1.57 12.72,-1.57 l -56.44,-91.91 v -65.58 c 0,0 -3.79,-1.56 -11.16,-1.56 -8.03,0 -11.6,1.56 -11.6,1.56 v 65.14 l -54.88,92.35 c 0,0 4.91,1.57 13.84,1.57 8.25,0 12.94,-1.57 12.94,-1.57 l 40.82,-68.93 41.94,68.93 c 0,0 4.01,1.57 11.82,1.57" /><path
         id="path340"
         style="fill:#404147;fill-opacity:1;fill-rule:nonzero;stroke:none"
         d="m 4006.72,2821.88 c -23.64,0 -39.04,-14.27 -39.04,-63.58 0,-49.29 15.4,-63.57 39.04,-63.57 23.88,0 39.04,14.28 39.04,63.57 0,49.31 -15.16,63.58 -39.04,63.58 z m 0,18.97 c 38.59,0 62.91,-24.76 62.91,-82.55 0,-57.77 -23.87,-82.54 -62.91,-82.54 -39.04,0 -62.91,24.77 -62.91,82.54 0,57.34 24.32,82.55 62.91,82.55" /><path
         id="path342"
         style="fill:#404147;fill-opacity:1;fill-rule:nonzero;stroke:none"
         d="m 4213.78,2732.43 c 0,-36.36 -22.31,-56.67 -56.44,-56.67 -33.91,0 -55.99,20.75 -55.99,56.67 v 104.62 c 0,0 3.79,1.57 11.15,1.57 7.59,0 11.38,-1.57 11.38,-1.57 v -108.19 c 0,-21.42 12.49,-33.91 33.9,-33.91 21.64,0 33.69,12.49 33.69,33.91 v 108.19 c 0,0 3.57,1.57 10.93,1.57 7.37,0 11.38,-1.57 11.38,-1.57 v -104.62" /><path
         id="path344"
         style="fill:#404147;fill-opacity:1;fill-rule:nonzero;stroke:none"
         d="m 4275.17,2763.66 h 31.45 c 17.4,0 27.22,10.26 27.22,27.89 0,17.84 -9.82,28.11 -27.22,28.11 h -31.45 z m 34.35,74.96 c 29.23,0 47.96,-18.96 47.96,-47.07 0,-22.09 -11.82,-38.82 -31.44,-44.62 l 38.8,-67.37 c 0,0 -4.67,-1.56 -13.38,-1.56 -8.26,0 -12.93,1.56 -12.93,1.56 l -37.04,65.14 h -26.32 v -65.14 c 0,0 -3.79,-1.56 -11.16,-1.56 -8.25,0 -11.6,1.56 -11.6,1.56 v 159.06 h 57.11" /><path
         id="path346"
         style="fill:#404147;fill-opacity:1;fill-rule:nonzero;stroke:none"
         d="m 4531.53,2838.62 c 0,0 1.79,-4.02 1.79,-9.6 0,-5.79 -1.79,-10.03 -1.79,-10.03 h -41.49 v -139.43 c 0,0 -4.01,-1.56 -11.38,-1.56 -8.03,0 -11.37,1.56 -11.37,1.56 v 139.43 h -42.61 c 0,0 -1.79,3.79 -1.79,9.81 0,5.58 1.79,9.82 1.79,9.82 h 106.85" /><path
         id="path348"
         style="fill:#404147;fill-opacity:1;fill-rule:nonzero;stroke:none"
         d="m 4649.58,2838.62 c 0.89,-2.68 1.78,-5.58 1.78,-8.71 0,-3.56 -0.67,-6.91 -1.78,-9.81 h -67.82 v -51.76 h 56.66 c 0.9,-2.67 1.79,-5.79 1.79,-8.92 0,-3.12 -0.67,-6.47 -1.79,-9.37 h -56.66 v -53.54 h 70.05 c 0.89,-2.9 1.78,-5.8 1.78,-8.92 0,-3.35 -0.67,-6.47 -1.78,-9.59 H 4559 v 160.62 h 90.58" /><path
         id="path350"
         style="fill:#404147;fill-opacity:1;fill-rule:nonzero;stroke:none"
         d="m 4783.02,2838.62 c 5.12,0 9.15,-0.67 12.05,-1.57 l -47.75,-74.28 51.76,-82.77 c 0,0 -4.69,-2 -13.16,-2 -8.03,0 -12.72,1.78 -12.72,1.78 l -40.82,65.14 -41.28,-65.36 c -2.9,-0.9 -6.91,-1.56 -11.37,-1.56 -5.13,0 -10.04,0.44 -13.38,1.56 l 51.97,81.87 -46.62,75.62 c 0,0 4.46,1.57 13.16,1.57 7.59,0 12.72,-1.57 12.72,-1.57 l 36.36,-58.22 37.04,58.22 c 3.34,0.9 7.14,1.57 12.04,1.57" /><path
         id="path352"
         style="fill:#404147;fill-opacity:1;fill-rule:nonzero;stroke:none"
         d="m 4917.34,2838.62 c 0,0 1.79,-4.02 1.79,-9.6 0,-5.79 -1.79,-10.03 -1.79,-10.03 h -41.49 v -139.43 c 0,0 -4.01,-1.56 -11.38,-1.56 -8.02,0 -11.37,1.56 -11.37,1.56 v 139.43 h -42.61 c 0,0 -1.79,3.79 -1.79,9.81 0,5.58 1.79,9.82 1.79,9.82 h 106.85" /></g></g></svg>
